<svg width="19" height="17" xmlns="http://www.w3.org/2000/svg" xmlns:xlink="http://www.w3.org/1999/xlink"><defs><path id="a" d="M.714.313H6.9v5.661H.713z"/><path id="c" d="M.436.313h6.186v5.661H.436z"/><path id="e" d="M.436.209h6.186V5.87H.436z"/><path id="g" d="M.714.209H6.9V5.87H.713z"/></defs><g fill="none" fill-rule="evenodd"><g transform="translate(1 1)"><mask id="b" fill="#fff"><use xlink:href="#a"/></mask><path fill="#FFF" mask="url(#b)" d="M-4.286 10.974H11.9v-15.66H-4.286z"/></g><path stroke="#FFF" stroke-width="1.512" stroke-linecap="round" stroke-linejoin="round" d="M1.714 1.313H7.9v5.66H1.714z"/><g transform="translate(11 1)"><mask id="d" fill="#fff"><use xlink:href="#c"/></mask><path fill="#FFF" mask="url(#d)" d="M-4.564 10.974h16.186v-15.66H-4.564z"/></g><path stroke="#FFF" stroke-width="1.512" stroke-linecap="round" stroke-linejoin="round" d="M11.436 1.313h6.186v5.66h-6.186z"/><g transform="translate(11 10)"><mask id="f" fill="#fff"><use xlink:href="#e"/></mask><path fill="#FFF" mask="url(#f)" d="M-4.564 10.87h16.186V-4.79H-4.564z"/></g><path stroke="#FFF" stroke-width="1.512" stroke-linecap="round" stroke-linejoin="round" d="M11.436 10.209h6.186v5.66h-6.186z"/><g transform="translate(1 10)"><mask id="h" fill="#fff"><use xlink:href="#g"/></mask><path fill="#FFF" mask="url(#h)" d="M-4.286 10.87H11.9V-4.79H-4.286z"/></g><path stroke="#FFF" stroke-width="1.512" stroke-linecap="round" stroke-linejoin="round" d="M1.714 10.209H7.9v5.66H1.714z"/></g></svg>