<svg width="20" height="20" xmlns="http://www.w3.org/2000/svg"><g stroke="#FFF" stroke-width="1.512" fill="none" fill-rule="evenodd" stroke-linecap="round" stroke-linejoin="round"><path d="M10.999 1.868l7.088 3.235c.602.273.983.834.983 1.447v7.707c0 .614-.381 1.175-.983 1.448l-7.088 3.235c-.5.228-1.087.228-1.586 0l-7.088-3.235c-.602-.277-.98-.84-.975-1.456V6.55c0-.613.381-1.174.984-1.447l7.088-3.235a1.924 1.924 0 0 1 1.577 0z"/><path d="M1.634 5.677l8.576 3.914 8.577-3.914M10.21 19.101v-9.51M5.78 3.526l8.86 4.044"/></g></svg>